<?xml version="1.0" encoding="utf-8"?>
<!-- Generator: Adobe Illustrator 26.0.0, SVG Export Plug-In . SVG Version: 6.00 Build 0)  -->
<svg version="1.1" id="Capa_1" xmlns="http://www.w3.org/2000/svg" xmlns:xlink="http://www.w3.org/1999/xlink" x="0px" y="0px"
	 viewBox="0 0 111.9 111.9" style="enable-background:new 0 0 111.9 111.9;" xml:space="preserve">
<style type="text/css">
	.st0{fill:#F8FCFB;}
</style>
<rect class="st0" width="111.9" height="111.9"/>
<g>
	<path d="M81.8,13.5H31.1c0.4-1.6,1.4-3.3,2.5-4.5c1.7-1.7,4.2-2.8,7-2.8h31.9C76.9,6.2,80.8,9.4,81.8,13.5z"/>
	<g>
		<path d="M76.8,17.2H35.1c-13,0-23.3,10.4-23.3,23.3v41.7c0,13,10.4,23.3,23.3,23.3h41.7c13,0,23.3-10.4,23.3-23.3V40.5
			C100.1,27.7,89.7,17.2,76.8,17.2z M37.5,71.5c0-3.5,2.7-6.2,6.2-6.2c3.5,0,6.2,2.7,6.2,6.2c0,3.5-2.7,6.2-6.2,6.2
			C40.2,77.7,37.5,74.9,37.5,71.5z M64.4,71.5c0-3.5,2.7-6.2,6.2-6.2c3.5,0,6.2,2.7,6.2,6.2c0,3.5-2.7,6.2-6.2,6.2
			C67.1,77.7,64.4,74.9,64.4,71.5z M94,72.1c-1.9-0.8-5.3,0.7-5.3,0.7L88.6,73c-1.5-1.5-3.5-5.3-5.2-9.6c-2.1-4.8-1.5-19.7-1.5-19.7
			l-13.6,9.1c-6.6-1.5-22-0.1-22-0.1c-9.9-8.2-14.7-7.5-14.7-7.5s0.9,14.5,0,20.2c-0.4,2.7-2.4,5-4.2,6.6c-3.6,0.1-6.1,0.9-7.8,1.7
			V40.5c0-8.1,6.6-14.7,14.7-14.7h45.3c8.1,0,14.7,6.6,14.7,14.7v31.6H94z"/>
	</g>
</g>
</svg>
