<?xml version="1.0" encoding="utf-8"?>
<!-- Generator: Adobe Illustrator 26.0.0, SVG Export Plug-In . SVG Version: 6.00 Build 0)  -->
<svg version="1.1" id="Capa_1" xmlns="http://www.w3.org/2000/svg" xmlns:xlink="http://www.w3.org/1999/xlink" x="0px" y="0px"
	 viewBox="0 0 111.9 111.9" style="enable-background:new 0 0 111.9 111.9;" xml:space="preserve">
<style type="text/css">
	.st0{fill:#F8FCFB;}
</style>
<g>
	<path d="M96.4,110.9H15.5c-6.6,0-12-5.4-12-12V13c0-6.6,5.4-12,12-12h80.8c6.6,0,12,5.4,12,12v85.9
		C108.4,105.5,102.9,110.9,96.4,110.9z"/>
	<g>
		<path class="st0" d="M77.5,16H34.4C21,16,10.3,26.8,10.3,40.1v43.1c0,13.4,10.8,24.1,24.1,24.1h43.1c13.4,0,24.1-10.8,24.1-24.1
			V40.1C101.6,26.8,90.9,16,77.5,16z M36.9,72.1c0-3.6,2.8-6.4,6.4-6.4s6.4,2.8,6.4,6.4s-2.8,6.4-6.4,6.4S36.9,75.7,36.9,72.1z
			 M64.7,72.1c0-3.6,2.8-6.4,6.4-6.4s6.4,2.8,6.4,6.4s-2.8,6.4-6.4,6.4S64.7,75.7,64.7,72.1z M95.3,72.8c-2-0.8-5.5,0.7-5.5,0.7
			l-0.1,0.2c-1.5-1.6-3.6-5.5-5.4-9.9c-2.2-5-1.6-20.4-1.6-20.4l-14.1,9.4c-6.8-1.6-22.8-0.1-22.8-0.1c-10.2-8.5-15.2-7.8-15.2-7.8
			s0.9,15,0,20.9c-0.4,2.8-2.5,5.2-4.3,6.8c-3.7,0.1-6.3,0.9-8.1,1.8V40.1c0-8.4,6.8-15.2,15.2-15.2h46.9c8.4,0,15.2,6.8,15.2,15.2
			v32.7H95.3z"/>
	</g>
	<path class="st0" d="M82.7,12.2H30.2c0.4-1.7,1.4-3.4,2.6-4.7c1.8-1.8,4.3-2.9,7.2-2.9h33C77.6,4.6,81.6,7.9,82.7,12.2z"/>
</g>
</svg>
