<?xml version="1.0" encoding="utf-8"?>
<!-- Generator: Adobe Illustrator 26.0.0, SVG Export Plug-In . SVG Version: 6.00 Build 0)  -->
<svg version="1.1" id="Capa_1" xmlns="http://www.w3.org/2000/svg" xmlns:xlink="http://www.w3.org/1999/xlink" x="0px" y="0px"
	 viewBox="0 0 111.9 111.9" style="enable-background:new 0 0 111.9 111.9;" xml:space="preserve">
<style type="text/css">
	.st0{fill:#FAFAFA;}
</style>
<path class="st0" d="M99.9,111.9H12c-6.6,0-12-5.4-12-12V12C0,5.4,5.4,0,12,0h87.9c6.6,0,12,5.4,12,12v87.9
	C111.9,106.5,106.5,111.9,99.9,111.9z"/>
<g>
	<path d="M80.6,15.6H32.2c0.4-1.6,1.3-3.1,2.4-4.3c1.7-1.7,4-2.7,6.6-2.7h30.4C75.9,8.6,79.6,11.6,80.6,15.6z"/>
	<g>
		<circle cx="44.9" cy="71.1" r="4.1"/>
		<circle cx="69.4" cy="71.1" r="4.1"/>
		<path d="M75.8,19.1H36.1c-12.3,0-22.2,9.9-22.2,22.2V81c0,12.3,9.9,22.2,22.2,22.2h39.7C88.1,103.2,98,93.3,98,81V41.3
			C98,29,88.1,19.1,75.8,19.1z M38.4,70.7c0-3.3,2.6-5.9,5.9-5.9c3.3,0,5.9,2.6,5.9,5.9c0,3.3-2.6,5.9-5.9,5.9
			C41,76.6,38.4,74,38.4,70.7z M64,70.7c0-3.3,2.6-5.9,5.9-5.9c3.3,0,5.9,2.6,5.9,5.9c0,3.3-2.6,5.9-5.9,5.9
			C66.6,76.6,64,74,64,70.7z M92.2,71.4c-1.8-0.7-5.1,0.6-5.1,0.6L87,72.2c-1.4-1.5-3.3-5.1-5-9.1c-2-4.6-1.5-18.8-1.5-18.8l-13,8.7
			c-6.3-1.5-21-0.1-21-0.1c-9.4-7.8-14-7.2-14-7.2s0.8,13.8,0,19.2c-0.4,2.6-2.3,4.8-4,6.3c-3.4,0.1-5.8,0.8-7.5,1.7V41.3
			c0-7.7,6.3-14,14-14h43.2c7.7,0,14,6.3,14,14V71.4z"/>
	</g>
</g>
</svg>
