<?xml version="1.0" encoding="utf-8"?>
<!-- Generator: Adobe Illustrator 26.0.0, SVG Export Plug-In . SVG Version: 6.00 Build 0)  -->
<svg version="1.1" id="Capa_1" xmlns="http://www.w3.org/2000/svg" xmlns:xlink="http://www.w3.org/1999/xlink" x="0px" y="0px"
	 viewBox="0 0 208.6 149.2" style="enable-background:new 0 0 208.6 149.2;" xml:space="preserve">
<style type="text/css">
	.st0{fill:#1D1D1B;}
	.st1{fill:#F7FBFA;}
	.st2{fill:#D88828;}
</style>
<g>
	<path class="st0" d="M47.5,109.1l5.9-37.4h12.2l-10.9,72.6H41.9L35,99l-6.7,45.3H15.6L4.7,72.2l12.3-0.5l5.9,37.4l7-37.4h10.5
		L47.5,109.1z"/>
</g>
<g>
	<path class="st0" d="M83.5,144.3H71.2V71.7h12.3V144.3z"/>
</g>
<g>
	<path class="st0" d="M106,134.8h24.5v9.5H90.6v-6.5L115,81.7H90.4v-10h39.8v6.8L106,134.8z"/>
</g>
<g>
	<path class="st0" d="M186.8,77h-37c0.3-1.3,1-2.4,1.9-3.3c1.3-1.3,3.1-2.1,5-2.1H180C183.3,71.7,186,74,186.8,77z"/>
	<g>
		<rect x="153.8" y="112.4" class="st1" width="30.5" height="14.6"/>
		<path class="st0" d="M183.2,79.7h-30.3c-9.4,0-16.9,7.6-16.9,16.9V127c0,9.4,7.6,17,17,17h30.3c9.4,0,16.9-7.6,16.9-16.9V96.7
			C200.1,87.3,192.5,79.7,183.2,79.7z M154.6,119.1c0-2.5,2-4.5,4.5-4.5s4.5,2,4.5,4.5c0,2.5-2,4.5-4.5,4.5S154.6,121.6,154.6,119.1
			z M174.1,119.1c0-2.5,2-4.5,4.5-4.5c2.5,0,4.5,2,4.5,4.5c0,2.5-2,4.5-4.5,4.5C176.2,123.7,174.1,121.6,174.1,119.1z M195.7,119.7
			c-1.4-0.6-3.9,0.5-3.9,0.5l-0.1,0.2c-1.1-1.2-2.5-3.9-3.8-6.9c-1.5-3.5-1.1-14.3-1.1-14.3l-10,6.6c-4.8-1.1-16-0.1-16-0.1
			c-7.2-5.9-10.7-5.5-10.7-5.5s0.6,10.5,0,14.6c-0.3,2-1.7,3.7-3.1,4.8c-2.6,0.1-4.4,0.6-5.8,1.3V96.7c0-5.9,4.8-10.7,10.7-10.7h33
			c5.9,0,10.7,4.8,10.7,10.7V119.7z"/>
	</g>
</g>
<path class="st0" d="M5.2,64.3V6.7h14c3.9,0,7.3,0.9,10.4,2.6c3.1,1.7,5.5,4.2,7.2,7.4c1.7,3.2,2.6,6.8,2.6,10.7v2
	c0,4-0.8,21.6-2.5,24.8c-1.7,3.2-4.1,5.6-7.1,7.4c-3.1,1.8-6.5,2.7-10.3,2.7H5.2z M15.7,14.8v41.5h3.7c3,0,5.3-1.1,6.9-3.2
	c1.6-2.1,2.4-19.4,2.4-23.6v-1.9c0-4.2-0.8-7.4-2.4-9.5c-1.6-2.1-4-3.2-7.1-3.2H15.7z"/>
<path class="st0" d="M69.7,45.2H53.2v10.4h19.5v8.1h-30V20.1h30.1v8.1H53.2v9.2h16.5V45.2z"/>
<path class="st0" d="M99.8,52.1c0-1.5-0.5-2.7-1.6-3.6c-1.1-0.9-3-1.7-5.7-2.7c-2.7-0.9-5-1.8-6.7-2.7c-5.7-2.8-8.5-6.6-8.5-11.4
	c0-2.4,0.7-4.5,2.1-6.4c1.4-1.8,3.4-3.3,6-4.3c2.6-1,5.5-1.5,8.7-1.5c3.1,0,5.9,0.6,8.4,1.7c2.5,1.1,4.4,2.7,5.8,4.8
	s2.1,4.4,2.1,7.1H99.9c0-1.8-0.5-3.2-1.6-4.1c-1.1-1-2.6-1.5-4.4-1.5c-1.9,0-3.4,0.4-4.4,1.2c-1.1,0.8-1.6,1.9-1.6,3.2
	c0,1.1,0.6,2.1,1.8,3c1.2,0.9,3.3,1.8,6.3,2.8c3,1,5.5,2,7.4,3.1c4.7,2.7,7.1,6.5,7.1,11.2c0,3.8-1.4,6.8-4.3,9
	c-2.9,2.2-6.8,3.3-11.8,3.3c-3.5,0-6.7-0.6-9.6-1.9c-2.9-1.3-5-3-6.5-5.2C76.7,55,76,52.5,76,49.6h10.5c0,2.3,0.6,4.1,1.8,5.2
	c1.2,1.1,3.2,1.7,5.9,1.7c1.7,0,3.1-0.4,4.1-1.1C99.3,54.5,99.8,53.5,99.8,52.1z"/>
<path class="st0" d="M124,63.7h-10.5V20.1H124V63.7z"/>
<path class="st0" d="M163.6,63.7h-10.5l-15.5-27.1v27.1h-10.5V20.1h10.5l15.4,27.1V20.1h10.5V63.7z"/>
<path class="st0" d="M203.3,58.3c-1.6,1.8-4,3.2-7.1,4.3c-3.1,1.1-6.5,1.6-10.2,1.6c-5.7,0-10.3-1.7-13.7-5.2
	c-3.4-3.5-5.2-8.4-5.5-14.6l0-3.8c0-4.3,0.8-8,2.3-11.2s3.7-5.7,6.5-7.4c2.8-1.7,6.1-2.6,9.8-2.6c5.4,0,9.6,1.2,12.7,3.7
	c3,2.5,4.8,6.2,5.3,11.1h-10.1c-0.4-2.4-1.1-4.2-2.3-5.2c-1.2-1-2.9-1.6-5.1-1.6c-2.6,0-4.7,1.1-6.1,3.4c-1.4,2.2-2.2,5.4-2.2,9.6
	v2.6c0,4.4,0.7,7.6,2.2,9.8s3.8,3.3,7,3.3c2.7,0,4.8-0.6,6.1-1.8v-6.8h-7.3v-7.2h17.8V58.3z"/>
<path class="st1" d="M122,25.2h-6.5c-0.5,0-0.8,0.4-0.8,0.8v36.1c0,0.5,0.4,0.8,0.8,0.8h6.5c0.5,0,0.8-0.4,0.8-0.8V26
	C122.8,25.6,122.5,25.2,122,25.2z"/>
<path class="st2" d="M120.6,36.8H117c-0.5,0-1,0.4-1,1v23.8c0,0.5,0.4,1,1,1h3.6c0.5,0,1-0.4,1-1V37.8
	C121.5,37.3,121.1,36.8,120.6,36.8z"/>
</svg>
