<?xml version="1.0" encoding="utf-8"?>
<!-- Generator: Adobe Illustrator 26.0.0, SVG Export Plug-In . SVG Version: 6.00 Build 0)  -->
<svg version="1.1" id="Capa_1" xmlns="http://www.w3.org/2000/svg" xmlns:xlink="http://www.w3.org/1999/xlink" x="0px" y="0px"
	 viewBox="0 0 236.9 167.9" style="enable-background:new 0 0 236.9 167.9;" xml:space="preserve">
<style type="text/css">
	.st0{fill:#1D1D1B;}
	.st1{fill:#F7FBFA;}
	.st2{fill:#D88828;}
</style>
<path class="st0" d="M7.9,5.9v57.7l6.8,7.1H3L14.7,150l24,13.1h15.6l3-4.1l8.1,4.1h17.5l0.9-5.5l10.8,5.5h15.1l1.2-2.1l2.7,2.1
	l107.8,0.1c0,0,8-1.4,8-10c0-8.6,0-68.7,0-68.7l-1.3-2.2l3.9-4.5V59.2l-1.2-2.6l1.2-2.4l-4.8-13.5l-20.3-20.1
	c0,0-13.8-14.2-33.3-1.8l-4.2-4l-13.7-0.4c0,0-3-0.1-3.8,4.3v4.4l-9.4-8.9l-12.5,0.2l-1,1.6l-0.7-1.7H116l-3.7,4.4c0,0-12-11-30-0.3
	l-4.6-4.4h-33c0,0-5.5-9.6-18-10.7H10.2C10.2,3.3,7.9,3.7,7.9,5.9z"/>
<g>
	<path class="st1" d="M53.2,110.8l5.9-37.4h12.2l-10.9,72.6H47.7l-6.9-45.3l-6.7,45.3H21.4L10.5,74l12.3-0.5l5.9,37.4l7-37.4h10.5
		L53.2,110.8z"/>
</g>
<g>
	<path class="st1" d="M89.3,146.1H77V73.5h12.3V146.1z"/>
</g>
<g>
	<path class="st1" d="M111.7,136.6h24.5v9.5H96.3v-6.5l24.4-56.1H96.2v-10H136v6.8L111.7,136.6z"/>
</g>
<g>
	<path class="st1" d="M10.5,65.2V7.5h14c3.9,0,7.3,0.9,10.4,2.6c3.1,1.7,5.5,4.2,7.2,7.4c1.7,3.2,2.6,6.8,2.6,10.7v2
		c0,4-0.8,21.6-2.5,24.8c-1.7,3.2-4.1,5.6-7.1,7.4c-3.1,1.8-6.5,2.7-10.3,2.7H10.5z M21,15.6v41.5h3.7c3,0,5.3-1.1,6.9-3.2
		c1.6-2.1,2.4-19.4,2.4-23.6v-1.9c0-4.2-0.8-7.4-2.4-9.5c-1.6-2.1-4-3.2-7.1-3.2H21z"/>
	<path class="st1" d="M74.9,46.1H58.4v10.4h19.5v8.1h-30V21H78v8.1H58.4v9.2h16.5V46.1z"/>
	<path class="st1" d="M105.1,53c0-1.5-0.5-2.7-1.6-3.6c-1.1-0.9-3-1.7-5.7-2.7c-2.7-0.9-5-1.8-6.7-2.7c-5.7-2.8-8.5-6.6-8.5-11.4
		c0-2.4,0.7-4.5,2.1-6.4c1.4-1.8,3.4-3.3,6-4.3c2.6-1,5.5-1.5,8.7-1.5c3.1,0,5.9,0.6,8.4,1.7c2.5,1.1,4.4,2.7,5.8,4.8
		s2.1,4.4,2.1,7.1h-10.5c0-1.8-0.5-3.2-1.6-4.1c-1.1-1-2.6-1.5-4.4-1.5c-1.9,0-3.4,0.4-4.4,1.2c-1.1,0.8-1.6,1.9-1.6,3.2
		c0,1.1,0.6,2.1,1.8,3c1.2,0.9,3.3,1.8,6.3,2.8c3,1,5.5,2,7.4,3.1c4.7,2.7,7.1,6.5,7.1,11.2c0,3.8-1.4,6.8-4.3,9
		c-2.9,2.2-6.8,3.3-11.8,3.3c-3.5,0-6.7-0.6-9.6-1.9c-2.9-1.3-5-3-6.5-5.2c-1.4-2.2-2.2-4.7-2.2-7.6h10.5c0,2.3,0.6,4.1,1.8,5.2
		c1.2,1.1,3.2,1.7,5.9,1.7c1.7,0,3.1-0.4,4.1-1.1C104.6,55.4,105.1,54.3,105.1,53z"/>
	<path class="st1" d="M129.2,64.6h-10.5V21h10.5V64.6z"/>
	<path class="st1" d="M168.8,64.6h-10.5l-15.5-27.1v27.1h-10.5V21h10.5l15.4,27.1V21h10.5V64.6z"/>
	<path class="st1" d="M208.6,59.2c-1.6,1.8-4,3.2-7.1,4.3c-3.1,1.1-6.5,1.6-10.2,1.6c-5.7,0-10.3-1.7-13.7-5.2
		c-3.4-3.5-5.2-8.4-5.5-14.6l0-3.8c0-4.3,0.8-8,2.3-11.2c1.5-3.2,3.7-5.7,6.5-7.4c2.8-1.7,6.1-2.6,9.8-2.6c5.4,0,9.6,1.2,12.7,3.7
		c3,2.5,4.8,6.2,5.3,11.1h-10.1c-0.4-2.4-1.1-4.2-2.3-5.2c-1.2-1-2.9-1.6-5.1-1.6c-2.6,0-4.7,1.1-6.1,3.4c-1.4,2.2-2.2,5.4-2.2,9.6
		V44c0,4.4,0.7,7.6,2.2,9.8s3.8,3.3,7,3.3c2.7,0,4.8-0.6,6.1-1.8v-6.8h-7.3v-7.2h17.8V59.2z"/>
</g>
<path class="st0" d="M127.3,26h-6.5c-0.5,0-0.8,0.4-0.8,0.8V63c0,0.5,0.4,0.8,0.8,0.8h6.5c0.5,0,0.8-0.4,0.8-0.8V26.9
	C128.1,26.4,127.7,26,127.3,26z"/>
<path class="st2" d="M125.8,37.7h-3.6c-0.5,0-1,0.4-1,1v23.8c0,0.5,0.4,1,1,1h3.6c0.5,0,1-0.4,1-1V38.7
	C126.8,38.1,126.3,37.7,125.8,37.7z"/>
<g>
	<path class="st1" d="M195.3,79.2h-37c0.3-1.3,1-2.4,1.9-3.3c1.3-1.3,3.1-2.1,5-2.1h23.2C191.7,73.8,194.5,76.1,195.3,79.2z"/>
	<g>
		<path class="st1" d="M191.6,81.9h-30.3c-9.4,0-16.9,7.6-16.9,16.9v30.3c0,9.4,7.6,17,17,17h30.3c9.4,0,16.9-7.6,16.9-16.9V98.8
			C208.6,89.5,201,81.9,191.6,81.9z M163,121.3c0-2.5,2-4.5,4.5-4.5s4.5,2,4.5,4.5c0,2.5-2,4.5-4.5,4.5S163,123.8,163,121.3z
			 M182.6,121.3c0-2.5,2-4.5,4.5-4.5c2.5,0,4.5,2,4.5,4.5c0,2.5-2,4.5-4.5,4.5C184.6,125.8,182.6,123.8,182.6,121.3z M204.1,121.8
			c-1.4-0.6-3.9,0.5-3.9,0.5l-0.1,0.2c-1.1-1.2-2.5-3.9-3.8-6.9c-1.5-3.5-1.1-14.3-1.1-14.3l-10,6.6c-4.8-1.1-16-0.1-16-0.1
			c-7.2-5.9-10.7-5.5-10.7-5.5s0.6,10.5,0,14.6c-0.3,2-1.7,3.7-3.1,4.8c-2.6,0.1-4.4,0.6-5.8,1.3V98.8c0-5.9,4.8-10.7,10.7-10.7h33
			c5.9,0,10.7,4.8,10.7,10.7V121.8z"/>
	</g>
</g>
</svg>
