<?xml version="1.0" encoding="utf-8"?>
<!-- Generator: Adobe Illustrator 26.0.0, SVG Export Plug-In . SVG Version: 6.00 Build 0)  -->
<svg version="1.1" id="Capa_1" xmlns="http://www.w3.org/2000/svg" xmlns:xlink="http://www.w3.org/1999/xlink" x="0px" y="0px"
	 viewBox="0 0 215 152" style="enable-background:new 0 0 215 152;" xml:space="preserve">
<style type="text/css">
	.st0{fill:#F7FBFA;}
	.st1{fill:#D98928;}
</style>
<g>
	<path d="M50.8,109.1l5.9-37.4h12.2L58,144.3H45.2L38.4,99l-6.7,45.3H18.9L8,72.2l12.3-0.5l5.9,37.4l7-37.4h10.5L50.8,109.1z"/>
</g>
<g>
	<path d="M86.9,144.3H74.6V71.7h12.3V144.3z"/>
</g>
<g>
	<path d="M109.3,134.8h24.5v9.5H93.9v-6.5l24.4-56.1H93.8v-10h39.8v6.8L109.3,134.8z"/>
</g>
<g>
	<path d="M190.2,77h-37c0.3-1.3,1-2.4,1.9-3.3c1.3-1.3,3.1-2.1,5-2.1h23.2C186.6,71.7,189.4,74,190.2,77z"/>
	<g>
		<circle cx="162.9" cy="119.4" r="3.1"/>
		<circle cx="181.6" cy="119.4" r="3.1"/>
		<path d="M186.5,79.7h-30.3c-9.4,0-16.9,7.6-16.9,16.9V127c0,9.4,7.6,17,17,17h30.3c9.4,0,16.9-7.6,16.9-16.9V96.7
			C203.5,87.3,195.9,79.7,186.5,79.7z M157.9,119.1c0-2.5,2-4.5,4.5-4.5c2.5,0,4.5,2,4.5,4.5c0,2.5-2,4.5-4.5,4.5
			C159.9,123.7,157.9,121.6,157.9,119.1z M177.5,119.1c0-2.5,2-4.5,4.5-4.5c2.5,0,4.5,2,4.5,4.5c0,2.5-2,4.5-4.5,4.5
			C179.5,123.7,177.5,121.6,177.5,119.1z M199,119.7c-1.4-0.6-3.9,0.5-3.9,0.5l-0.1,0.2c-1.1-1.2-2.5-3.9-3.8-6.9
			c-1.5-3.5-1.1-14.3-1.1-14.3l-10,6.6c-4.8-1.1-16-0.1-16-0.1c-7.2-5.9-10.7-5.5-10.7-5.5s0.6,10.5,0,14.6c-0.3,2-1.7,3.7-3.1,4.8
			c-2.6,0.1-4.4,0.6-5.8,1.3V96.7c0-5.9,4.8-10.7,10.7-10.7h33c5.9,0,10.7,4.8,10.7,10.7V119.7z"/>
	</g>
</g>
<path d="M8.6,64.3V6.7h14c3.9,0,7.3,0.9,10.4,2.6c3.1,1.7,5.5,4.2,7.2,7.4c1.7,3.2,2.6,6.8,2.6,10.7v2c0,4-0.8,21.6-2.5,24.8
	c-1.7,3.2-4.1,5.6-7.1,7.4c-3.1,1.8-6.5,2.7-10.3,2.7H8.6z M19.1,14.8v41.5h3.7c3,0,5.3-1.1,6.9-3.2c1.6-2.1,2.4-19.4,2.4-23.6v-1.9
	c0-4.2-0.8-7.4-2.4-9.5c-1.6-2.1-4-3.2-7.1-3.2H19.1z"/>
<path d="M73.1,45.2H56.5v10.4h19.5v8.1H46V20.1h30.1v8.1H56.5v9.2h16.5V45.2z"/>
<path d="M103.2,52.1c0-1.5-0.5-2.7-1.6-3.6c-1.1-0.9-3-1.7-5.7-2.7c-2.7-0.9-5-1.8-6.7-2.7c-5.7-2.8-8.5-6.6-8.5-11.4
	c0-2.4,0.7-4.5,2.1-6.4c1.4-1.8,3.4-3.3,6-4.3c2.6-1,5.5-1.5,8.7-1.5c3.1,0,5.9,0.6,8.4,1.7c2.5,1.1,4.4,2.7,5.8,4.8
	s2.1,4.4,2.1,7.1h-10.5c0-1.8-0.5-3.2-1.6-4.1c-1.1-1-2.6-1.5-4.4-1.5c-1.9,0-3.4,0.4-4.4,1.2c-1.1,0.8-1.6,1.9-1.6,3.2
	c0,1.1,0.6,2.1,1.8,3c1.2,0.9,3.3,1.8,6.3,2.8c3,1,5.5,2,7.4,3.1c4.7,2.7,7.1,6.5,7.1,11.2c0,3.8-1.4,6.8-4.3,9
	c-2.9,2.2-6.8,3.3-11.8,3.3c-3.5,0-6.7-0.6-9.6-1.9c-2.9-1.3-5-3-6.5-5.2c-1.4-2.2-2.2-4.7-2.2-7.6h10.5c0,2.3,0.6,4.1,1.8,5.2
	c1.2,1.1,3.2,1.7,5.9,1.7c1.7,0,3.1-0.4,4.1-1.1C102.7,54.5,103.2,53.5,103.2,52.1z"/>
<path d="M127.3,63.7h-10.5V20.1h10.5V63.7z"/>
<path d="M167,63.7h-10.5L141,36.6v27.1h-10.5V20.1H141l15.4,27.1V20.1H167V63.7z"/>
<path d="M206.7,58.3c-1.6,1.8-4,3.2-7.1,4.3c-3.1,1.1-6.5,1.6-10.2,1.6c-5.7,0-10.3-1.7-13.7-5.2c-3.4-3.5-5.2-8.4-5.5-14.6l0-3.8
	c0-4.3,0.8-8,2.3-11.2c1.5-3.2,3.7-5.7,6.5-7.4c2.8-1.7,6.1-2.6,9.8-2.6c5.4,0,9.6,1.2,12.7,3.7s4.8,6.2,5.3,11.1h-10.1
	c-0.4-2.4-1.1-4.2-2.3-5.2c-1.2-1-2.9-1.6-5.1-1.6c-2.6,0-4.7,1.1-6.1,3.4c-1.4,2.2-2.2,5.4-2.2,9.6v2.6c0,4.4,0.7,7.6,2.2,9.8
	s3.8,3.3,7,3.3c2.7,0,4.8-0.6,6.1-1.8v-6.8h-7.3v-7.2h17.8V58.3z"/>
<path class="st0" d="M124.3,22.9h-4.4c-0.5,0-0.8,0.4-0.8,0.8v36.1c0,0.5,0.4,0.8,0.8,0.8h4.4c0.5,0,0.8-0.4,0.8-0.8V23.7
	C125.1,23.3,124.7,22.9,124.3,22.9z"/>
<path class="st1" d="M123.4,34.6h-2.8c-0.5,0-1,0.4-1,1v23.8c0,0.5,0.4,1,1,1h2.8c0.5,0,1-0.4,1-1V35.5
	C124.3,35,123.9,34.6,123.4,34.6z"/>
</svg>
