<?xml version="1.0" encoding="utf-8"?>
<!-- Generator: Adobe Illustrator 26.0.0, SVG Export Plug-In . SVG Version: 6.00 Build 0)  -->
<svg version="1.1" id="Capa_1" xmlns="http://www.w3.org/2000/svg" xmlns:xlink="http://www.w3.org/1999/xlink" x="0px" y="0px"
	 viewBox="0 0 111.9 185.9" style="enable-background:new 0 0 111.9 185.9;" xml:space="preserve">
<style type="text/css">
	.st0{fill:#F7FBFA;}
	.st1{fill:#1D1D1B;}
	.st2{fill:#D88828;}
</style>
<g>
	<g>
		<path class="st0" d="M84.5,39.7l4.7-29.6h9.7l-8.6,57.6H80.1l-5.4-35.9l-5.3,35.9H59.2l-8.6-57.2l9.7-0.4L65,39.7l5.6-29.6h8.3
			L84.5,39.7z"/>
	</g>
</g>
<g>
	<path class="st0" d="M74.8,110.1h-37c0.3-1.3,1-2.4,1.9-3.3c1.3-1.3,3.1-2.1,5-2.1h23.2C71.2,104.7,74,107,74.8,110.1z"/>
	<g>
		<path class="st0" d="M71.2,112.8H40.8c-9.4,0-16.9,7.6-16.9,16.9V160c0,9.4,7.6,17,17,17h30.3c9.4,0,16.9-7.6,16.9-16.9v-30.3
			C88.1,120.3,80.5,112.8,71.2,112.8z M42.6,152.2c0-2.5,2-4.5,4.5-4.5s4.5,2,4.5,4.5c0,2.5-2,4.5-4.5,4.5S42.6,154.7,42.6,152.2z
			 M62.1,152.2c0-2.5,2-4.5,4.5-4.5c2.5,0,4.5,2,4.5,4.5c0,2.5-2,4.5-4.5,4.5C64.1,156.7,62.1,154.7,62.1,152.2z M83.7,152.7
			c-1.4-0.6-3.9,0.5-3.9,0.5l-0.1,0.2c-1.1-1.2-2.5-3.9-3.8-6.9c-1.5-3.5-1.1-14.3-1.1-14.3l-10,6.6c-4.8-1.1-16-0.1-16-0.1
			c-7.2-5.9-10.7-5.5-10.7-5.5s0.6,10.5,0,14.6c-0.3,2-1.7,3.7-3.1,4.8c-2.6,0.1-4.4,0.6-5.8,1.3v-24.1c0-5.9,4.8-10.7,10.7-10.7h33
			c5.9,0,10.7,4.8,10.7,10.7V152.7z"/>
	</g>
</g>
<path class="st0" d="M13.2,67.7V10h14c3.9,0,7.3,0.9,10.4,2.6c3.1,1.7,5.5,4.2,7.2,7.4c1.7,3.2,2.6,6.8,2.6,10.7v2
	c0,4-0.8,21.6-2.5,24.8c-1.7,3.2-4.1,5.6-7.1,7.4c-3.1,1.8-6.5,2.7-10.3,2.7H13.2z M23.7,18.1v41.5h3.7c3,0,5.3-1.1,6.9-3.2
	c1.6-2.1,2.4-19.4,2.4-23.6v-1.9c0-4.2-0.8-7.4-2.4-9.5c-1.6-2.1-4-3.2-7.1-3.2H23.7z"/>
<path class="st0" d="M93.9,102.2H18.1c-2.7,0-4.9-2.2-4.9-4.9v-22c0-2.7,2.2-4.9,4.9-4.9h75.8c2.7,0,4.9,2.2,4.9,4.9v22
	C98.8,99.9,96.6,102.2,93.9,102.2z"/>
<path class="st1" d="M94.3,92.4V79.9c0-0.5-0.4-0.8-0.8-0.8h-75c-0.5,0-0.8,0.4-0.8,0.8v12.6c0,0.5,0.4,0.8,0.8,0.8h75
	C94,93.2,94.3,92.9,94.3,92.4z"/>
<path class="st2" d="M71.2,90v-7.7c0-0.5-0.4-1-1-1H19.4c-0.5,0-1,0.4-1,1V90c0,0.5,0.4,1,1,1h50.8C70.7,91,71.2,90.5,71.2,90z"/>
</svg>
