<?xml version="1.0" encoding="utf-8"?>
<!-- Generator: Adobe Illustrator 26.0.0, SVG Export Plug-In . SVG Version: 6.00 Build 0)  -->
<svg version="1.1" id="Capa_1" xmlns="http://www.w3.org/2000/svg" xmlns:xlink="http://www.w3.org/1999/xlink" x="0px" y="0px"
	 viewBox="0 0 111.9 185.9" style="enable-background:new 0 0 111.9 185.9;" xml:space="preserve">
<style type="text/css">
	.st0{fill:#FFFFFF;}
	.st1{fill:#D98928;}
</style>
<g>
	<path d="M84.8,42.3l4.7-29.6h9.7l-8.6,57.6H80.4L75,34.3l-5.3,35.9H59.5L50.9,13l9.7-0.4l4.7,29.6l5.6-29.6h8.3L84.8,42.3z"/>
</g>
<g>
	<path d="M75.1,112.6h-37c0.3-1.3,1-2.4,1.9-3.3c1.3-1.3,3.1-2.1,5-2.1h23.2C71.6,107.3,74.4,109.6,75.1,112.6z"/>
	<g>
		<circle cx="47.8" cy="155" r="3.1"/>
		<circle cx="66.6" cy="155" r="3.1"/>
		<path d="M71.5,115.3H41.1c-9.4,0-16.9,7.6-16.9,16.9v30.3c0,9.4,7.6,17,17,17h30.3c9.4,0,16.9-7.6,16.9-16.9v-30.3
			C88.4,122.9,80.8,115.3,71.5,115.3z M42.9,154.7c0-2.5,2-4.5,4.5-4.5c2.5,0,4.5,2,4.5,4.5c0,2.5-2,4.5-4.5,4.5
			C44.9,159.2,42.9,157.2,42.9,154.7z M62.4,154.7c0-2.5,2-4.5,4.5-4.5c2.5,0,4.5,2,4.5,4.5c0,2.5-2,4.5-4.5,4.5
			C64.5,159.2,62.4,157.2,62.4,154.7z M84,155.2c-1.4-0.6-3.9,0.5-3.9,0.5l-0.1,0.2c-1.1-1.2-2.5-3.9-3.8-6.9
			c-1.5-3.5-1.1-14.3-1.1-14.3l-10,6.6c-4.8-1.1-16-0.1-16-0.1c-7.2-5.9-10.7-5.5-10.7-5.5s0.6,10.5,0,14.6c-0.3,2-1.7,3.7-3.1,4.8
			c-2.6,0.1-4.4,0.6-5.8,1.3v-24.1c0-5.9,4.8-10.7,10.7-10.7h33c5.9,0,10.7,4.8,10.7,10.7V155.2z"/>
	</g>
</g>
<path d="M13.5,70.2V12.5h14c3.9,0,7.3,0.9,10.4,2.6c3.1,1.7,5.5,4.2,7.2,7.4c1.7,3.2,2.6,6.8,2.6,10.7v2c0,4-0.8,21.6-2.5,24.8
	c-1.7,3.2-4.1,5.6-7.1,7.4c-3.1,1.8-6.5,2.7-10.3,2.7H13.5z M24,20.7v41.5h3.7c3,0,5.3-1.1,6.9-3.2c1.6-2.1,2.4-19.4,2.4-23.6v-1.9
	c0-4.2-0.8-7.4-2.4-9.5c-1.6-2.1-4-3.2-7.1-3.2H24z"/>
<path d="M94.2,104.7H18.4c-2.7,0-4.9-2.2-4.9-4.9v-22c0-2.7,2.2-4.9,4.9-4.9h75.8c2.7,0,4.9,2.2,4.9,4.9v22
	C99.2,102.5,96.9,104.7,94.2,104.7z"/>
<path class="st0" d="M94.8,95V82.5c0-0.5-0.4-0.8-0.8-0.8h-75c-0.5,0-0.8,0.4-0.8,0.8V95c0,0.5,0.4,0.8,0.8,0.8h75
	C94.4,95.8,94.8,95.4,94.8,95z"/>
<path class="st1" d="M81.9,92.6V85c0-0.5-0.4-1-1-1H20c-0.5,0-1,0.4-1,1v7.6c0,0.5,0.4,1,1,1h60.9C81.4,93.5,81.9,93.1,81.9,92.6z"
	/>
</svg>
