<?xml version="1.0" encoding="utf-8"?>
<!-- Generator: Adobe Illustrator 26.0.0, SVG Export Plug-In . SVG Version: 6.00 Build 0)  -->
<svg version="1.1" id="Capa_1" xmlns="http://www.w3.org/2000/svg" xmlns:xlink="http://www.w3.org/1999/xlink" x="0px" y="0px"
	 viewBox="0 0 111.9 111.9" style="enable-background:new 0 0 111.9 111.9;" xml:space="preserve">
<style type="text/css">
	.st0{fill:#F8FCFB;}
</style>
<path class="st0" d="M34.4,111.2c-15.5,0-28.1-12.6-28.1-28.1V40c0-12.3,8-23.1,19.5-26.8c0.2-1.3,0.6-2.5,1-3.6
	c0.1-0.2,0.2-0.5,0.3-0.8c0.2-0.4,0.4-0.8,0.6-1.1l0.2-0.3c0.2-0.4,0.5-0.8,0.7-1.1c0.5-0.7,0.9-1.2,1.3-1.7L30,4.6
	c2.6-2.6,6.2-4.1,10-4.1h33c4.1,0,8,1.9,10.7,5.1c0.4,0.4,1.3,1.5,2,3.3l0.1,0.2c0.1,0.2,0.2,0.5,0.3,0.7c0,0.1,0.1,0.2,0.1,0.2
	c0.4,1.1,0.7,2.3,0.9,3.6c11,4,18.4,14.5,18.4,26.4v43.1c0,15.5-12.6,28.1-28.1,28.1H34.4z"/>
<path class="st0" d="M83.5,16.6c-0.2-2.3-0.6-4-1-5.3c0,0,0-0.1-0.1-0.1c-0.1-0.2-0.1-0.4-0.2-0.6c0,0,0-0.1-0.1-0.1
	c-0.7-1.5-1.3-2.2-1.3-2.2l0,0C78.9,6,76.1,4.5,73,4.5H40c-2.9,0-5.4,1.1-7.2,2.9c-0.4,0.4-0.7,0.8-1,1.3c-0.1,0.2-0.3,0.5-0.5,0.8
	c0,0.1-0.1,0.1-0.1,0.2c-0.1,0.2-0.3,0.5-0.4,0.9c-0.1,0.2-0.2,0.4-0.2,0.6c-0.5,1.3-0.9,3-1.1,5.3c-11,2.3-19.1,12-19.1,23.6v43.1
	c0,13.4,10.8,24.1,24.1,24.1h43.1c13.4,0,24.1-10.8,24.1-24.1V40C101.6,28.8,94,19.3,83.5,16.6z"/>
<g>
	<path d="M82.7,12.1H30.2c0.4-1.7,1.4-3.4,2.6-4.7c1.8-1.8,4.3-2.9,7.2-2.9h33C77.6,4.5,81.6,7.8,82.7,12.1z"/>
	<g>
		<path d="M77.5,15.9H34.4C21,15.9,10.3,26.7,10.3,40v43.1c0,13.4,10.8,24.1,24.1,24.1h43.1c13.4,0,24.1-10.8,24.1-24.1V40
			C101.6,26.7,90.9,15.9,77.5,15.9z M36.9,72c0-3.6,2.8-6.4,6.4-6.4s6.4,2.8,6.4,6.4s-2.8,6.4-6.4,6.4S36.9,75.6,36.9,72z M64.7,72
			c0-3.6,2.8-6.4,6.4-6.4s6.4,2.8,6.4,6.4s-2.8,6.4-6.4,6.4S64.7,75.6,64.7,72z M95.3,72.7c-2-0.8-5.5,0.7-5.5,0.7l-0.1,0.2
			c-1.5-1.6-3.6-5.5-5.4-9.9c-2.2-5-1.6-20.4-1.6-20.4l-14.1,9.4c-6.8-1.6-22.8-0.1-22.8-0.1c-10.2-8.5-15.2-7.8-15.2-7.8
			s0.9,15,0,20.9c-0.4,2.8-2.5,5.2-4.3,6.8c-3.7,0.1-6.3,0.9-8.1,1.8V40c0-8.4,6.8-15.2,15.2-15.2h46.9c8.4,0,15.2,6.8,15.2,15.2
			v32.7H95.3z"/>
	</g>
</g>
</svg>
