<?xml version="1.0" encoding="utf-8"?>
<!-- Generator: Adobe Illustrator 26.0.0, SVG Export Plug-In . SVG Version: 6.00 Build 0)  -->
<svg version="1.1" id="Capa_1" xmlns="http://www.w3.org/2000/svg" xmlns:xlink="http://www.w3.org/1999/xlink" x="0px" y="0px"
	 viewBox="0 0 16 16" style="enable-background:new 0 0 16 16;" xml:space="preserve">
<path d="M5,10.7c0-0.1,0-0.2,0.3-0.2h2.3c0.3,0,0.3,0.1,0.3,0.2s0,0.3-0.2,0.3H5.3C5,11,5,10.9,5,10.7z M5,8.5
	c0-0.2,0.1-0.3,0.4-0.3h5.3C11,8.2,11,8.3,11,8.5s0,0.3-0.3,0.3H5.4C5.1,8.8,5,8.7,5,8.5z M5,6.7c0-0.2,0.1-0.3,0.4-0.3h5.3
	C11,6.4,11,6.5,11,6.7S11,7,10.7,7H5.4C5.1,7,5,6.9,5,6.7z M5,4.7c0-0.2,0.1-0.3,0.4-0.3h5.3C11,4.4,11,4.5,11,4.7S11,5,10.7,5H5.4
	C5.1,5,5,4.9,5,4.7z"/>
<path d="M3,0h10c1.1,0,2,0.9,2,2v12c0,1.1-0.9,2-2,2H3c-1.1,0-2-0.9-2-2v-1h0.6v1c0,0.6,0.8,1.4,1.4,1.4h10c0.6,0,1.4-0.8,1.4-1.4V2
	c0-0.6-0.8-1.4-1.4-1.4H3C2.4,0.6,1.6,1.4,1.6,2v1H1V2C1,0.9,1.9,0,3,0z"/>
<path d="M1.2,11.1v-0.5c0-0.3,0-0.4,0.3-0.4s0.3,0.2,0.3,0.5v0.5h0.4c0.3,0,0.5,0.1,0.5,0.4s-0.2,0.3-0.5,0.3H0.7
	c-0.3,0-0.5,0-0.5-0.3s0.2-0.4,0.5-0.4h0.5V11.1z"/>
<path d="M1.2,8.1V7.6c0-0.3,0-0.4,0.3-0.4s0.3,0.2,0.3,0.5v0.5h0.4c0.3,0,0.5,0.1,0.5,0.4S2.5,8.7,2.2,8.7H0.7c-0.3,0-0.5,0-0.5-0.3
	S0.4,8,0.7,8h0.5V8.1z"/>
<path d="M1.2,5V4.5c0-0.3,0-0.4,0.3-0.4s0.3,0.2,0.3,0.5V5h0.4c0.3,0,0.5,0.1,0.5,0.4S2.5,5.7,2.2,5.7H0.7c-0.3,0-0.5,0-0.5-0.3
	S0.5,5,0.7,5H1.2z"/>
</svg>
